<svg width="558" height="599" viewBox="0 0 558 599" fill="none" xmlns="http://www.w3.org/2000/svg">
<path d="M9 271.5C9 421.445 131.002 543 281.5 543C431.998 543 554 421.445 554 271.5C554 121.555 431.998 0 281.5 0C131.002 0 9 121.555 9 271.5ZM430.284 271.5C430.284 353.37 363.671 419.738 281.5 419.738C199.329 419.738 132.716 353.37 132.716 271.5C132.716 189.63 199.329 123.262 281.5 123.262C363.671 123.262 430.284 189.63 430.284 271.5Z" fill="url(#paint0_linear_201_76)"/>
<path d="M499.323 387.475C494.239 371.058 478.017 360.995 463.089 365C448.161 369.005 440.181 385.561 445.265 401.979C450.349 418.397 466.572 428.459 481.5 424.454C496.428 420.449 504.407 403.893 499.323 387.475Z" fill="#ED553B"/>
<path fill-rule="evenodd" clip-rule="evenodd" d="M447.723 401.32C452.531 416.847 467.589 425.709 480.792 422.167C493.994 418.625 501.675 403.662 496.866 388.134C492.058 372.607 477 363.745 463.797 367.287C450.595 370.829 442.914 385.792 447.723 401.32ZM482.208 426.741C465.555 431.209 448.168 419.946 442.808 402.638C437.448 385.33 445.728 367.181 462.381 362.713C479.034 358.245 496.421 369.508 501.781 386.816C507.14 404.124 498.861 422.273 482.208 426.741Z" fill="#1D1C1D"/>
<path d="M324.23 185.186C342.652 196.437 339.485 226.927 335.599 240.766C355.902 215.455 373.562 157.585 281.771 128.591C272.723 125.733 264.463 123.864 256.927 122.855C247.005 121.526 238.34 121.687 230.793 123.045C185.92 131.121 180.549 181.496 185.229 212.367C189.297 193.705 205.666 198.416 213.342 203.104C234.176 212.867 295.948 195.226 324.23 185.186Z" fill="#1D1C1D"/>
<path d="M216.248 70.0692C178.503 80.428 210.218 109.703 230.793 123.045C238.34 121.687 247.005 121.526 256.927 122.855C259.094 100.943 253.992 59.7105 216.248 70.0692Z" fill="#1D1C1D"/>
<path d="M134.234 479.908C161.518 479.232 272.545 468.139 316.094 495.794C330.984 505.25 331.229 512.19 325.103 517.229L390.029 517.229C394.12 499.931 334.883 417.984 304.753 379.172C298.178 372.561 291.718 366.606 285.595 361.339C218.414 405.707 156.695 352.301 134.234 320.052C104.877 323.47 69.4887 332.88 48.0884 361.339L111.388 419.441L134.234 479.908Z" fill="#1D1C1D"/>
<path fill-rule="evenodd" clip-rule="evenodd" d="M237.664 72.9825C232.628 70.5739 225.936 69.8919 216.971 72.3521C207.858 74.8532 203.637 78.311 202.057 81.7712C200.477 85.2318 201.183 89.4755 203.916 94.3342C209.248 103.815 221.343 113.889 231.386 120.523C238.278 119.398 245.987 119.225 254.587 120.169C255.308 109.616 254.28 95.7234 249.225 85.3431C246.515 79.7763 242.741 75.4111 237.664 72.9825ZM259.665 120.841C260.462 109.839 259.481 94.8727 253.884 83.3778C250.872 77.1924 246.428 71.8221 240.001 68.7482C233.532 65.6543 225.432 65.0668 215.525 67.7859C205.765 70.4643 199.797 74.5503 197.35 79.9095C194.904 85.2682 196.335 91.1194 199.385 96.5421C204.613 105.838 215.331 115.22 224.826 121.942C204.639 127.45 193.044 141.836 187.007 158.393C180.527 176.164 180.324 196.678 182.637 212.3C180.599 222.311 184.358 230.054 189.85 235.555C194.578 240.29 200.598 243.392 205.391 245.043C203.123 256.279 199.42 272.307 195.197 286.264C192.952 293.683 190.58 300.447 188.224 305.577C187.044 308.146 185.899 310.237 184.815 311.774C183.681 313.382 182.815 314.091 182.316 314.311C182.056 314.426 181.508 314.586 180.54 314.74C179.607 314.888 178.431 315.01 177.005 315.113C174.237 315.312 170.722 315.429 166.545 315.568L166.131 315.581C157.458 315.869 146.218 316.258 133.917 317.69C104.35 321.133 68.0313 330.667 45.9936 359.974C40.6461 367.086 36.1624 375.334 32.8263 384.897C18.7997 425.105 17.4861 461.177 25.4616 488.699C33.432 516.203 50.8043 535.442 74.2743 541.153C83.6839 543.442 96.9011 543.125 112.173 541.701C123.901 540.607 137.088 538.832 151.021 536.956C155.314 536.378 159.679 535.79 164.094 535.21C201.743 530.262 243.165 525.847 277.442 531.921C277.667 531.961 277.897 531.973 278.126 531.955L277.92 529.583C278.126 531.955 278.126 531.955 278.127 531.955L278.129 531.955L278.135 531.955L278.157 531.953L278.239 531.947L278.549 531.922C278.819 531.899 279.213 531.865 279.717 531.818C280.725 531.725 282.173 531.582 283.946 531.379C287.49 530.974 292.344 530.33 297.58 529.379C302.808 528.428 308.466 527.161 313.597 525.498C318.303 523.973 322.764 522.053 326.035 519.609L390.029 519.609C391.23 519.609 392.268 518.831 392.527 517.74C393.188 514.942 392.529 511.263 391.224 507.235C389.885 503.104 387.731 498.213 384.98 492.8C379.473 481.966 371.456 468.805 362.406 455.026C344.297 427.458 321.915 397.215 306.826 377.778C306.765 377.7 306.7 377.626 306.629 377.555C300.008 370.897 293.501 364.898 287.331 359.591C274.401 348.47 262.917 340.359 254.917 335.577L259.566 314.25C278.103 316.521 294.667 305.41 307.752 290.945C321.428 275.826 331.961 256.355 337.864 241.919C348.196 228.913 357.906 207.585 353.229 185.597C348.474 163.239 329.036 141.007 282.593 126.337C274.352 123.734 266.723 121.93 259.665 120.841ZM340.489 228.993C347.094 217.143 351.484 201.904 348.212 186.522C343.925 166.368 326.297 145.169 280.949 130.845C272.027 128.027 263.921 126.196 256.563 125.21C246.877 123.913 238.503 124.082 231.279 125.382C210.01 129.21 198.021 142.999 191.85 159.923C186.865 173.597 185.763 189.154 186.722 202.628C187.255 201.931 187.826 201.295 188.435 200.719C191.126 198.169 194.366 196.949 197.653 196.613C203.988 195.964 210.533 198.571 214.615 201.034C219.21 203.142 226.368 203.887 235.349 203.458C244.316 203.029 254.722 201.455 265.441 199.247C286.871 194.834 309.262 187.952 323.319 182.961C324.086 182.689 324.947 182.776 325.633 183.195C335.829 189.422 339.778 200.782 340.828 211.795C341.388 217.676 341.142 223.633 340.489 228.993ZM210.334 204.189C206.842 202.375 202.273 200.929 198.212 201.345C195.939 201.578 193.844 202.387 192.083 204.055C190.296 205.748 188.684 208.488 187.736 212.84C185.893 221.294 188.953 227.663 193.597 232.314C197.194 235.917 201.733 238.465 205.618 240.005C205.302 226.162 207.555 213.339 210.334 204.189ZM207.689 258.577C205.587 267.781 202.974 278.123 200.119 287.555C197.851 295.051 195.41 302.042 192.927 307.449C191.687 310.148 190.406 312.521 189.091 314.386C187.826 316.18 186.32 317.811 184.509 318.612C183.614 319.008 182.519 319.255 181.402 319.433C180.249 319.616 178.899 319.751 177.4 319.859C174.524 320.067 170.914 320.186 166.805 320.322L166.313 320.339C158.645 320.593 149.128 320.923 138.696 321.966C150.196 337.371 169.879 356.45 194.247 367.279C219.484 378.494 249.731 380.884 281.499 361.077C268.905 350.457 257.957 342.916 250.713 338.736C249.803 338.211 249.341 337.215 249.554 336.239L254.551 313.313C250.306 312.243 246.029 310.457 241.738 307.879C221.332 295.619 211.552 277.133 207.689 258.577ZM285.365 364.39C251.518 385.958 218.931 383.524 192.043 371.575C165.553 359.803 144.581 338.82 132.975 322.603C104.755 326.075 71.9357 335.207 51.4419 361.074L113.184 417.746C113.461 418 113.672 418.309 113.801 418.651L136.024 477.471C139.652 477.341 144.46 477.076 150.18 476.762C167.376 475.816 192.805 474.417 219.11 474.847C237.489 475.148 256.451 476.338 273.596 479.207C290.698 482.07 306.214 486.638 317.535 493.828C325.095 498.628 329.505 503.119 330.927 507.476C331.662 509.732 331.578 511.904 330.769 513.917C330.641 514.235 330.497 514.545 330.337 514.848L387.664 514.848C387.594 513.312 387.181 511.243 386.327 508.609C385.092 504.796 383.054 500.144 380.356 494.836C374.965 484.227 367.056 471.232 358.042 457.51C340.059 430.133 317.811 400.062 302.771 380.683C296.816 374.701 290.958 369.261 285.365 364.39ZM48.486 365.047C44.1774 371.219 40.5119 378.281 37.6907 386.368C23.8952 425.913 22.739 461.024 30.3996 487.459C38.0654 513.912 54.4354 531.405 75.5678 536.547C83.9991 538.599 96.389 538.388 111.664 536.964C123.269 535.882 136.298 534.128 150.203 532.256C154.516 531.675 158.913 531.083 163.379 530.496C200.808 525.577 242.891 521.031 278.051 527.183L278.093 527.18C278.347 527.159 278.725 527.126 279.212 527.081C280.185 526.991 281.594 526.852 283.323 526.654C286.784 526.258 291.514 525.631 296.6 524.706C301.694 523.78 307.095 522.565 311.915 521.002C316.785 519.424 320.835 517.562 323.41 515.445C324.728 514.36 325.561 513.289 325.979 512.249C326.381 511.249 326.454 510.15 326.033 508.859C325.14 506.123 321.983 502.415 314.653 497.76C304.2 491.122 289.506 486.707 272.69 483.893C255.916 481.085 237.252 479.905 219.02 479.607C192.925 479.18 168.034 480.551 150.853 481.497C143.951 481.877 138.293 482.189 134.302 482.288C133.192 482.315 132.19 481.673 131.822 480.698L109.172 420.749L48.486 365.047ZM215.003 206.332C212.246 215.76 210.084 229.119 210.864 243.321C212.086 265.562 220.475 289.439 244.512 303.88C249.163 306.674 253.684 308.376 258.054 309.193C274.711 312.307 290.448 302.683 303.839 287.879C317.093 273.227 327.404 254.17 333.159 240.042C335.032 233.314 336.721 222.579 335.733 212.215C334.776 202.168 331.369 193.029 323.875 187.856C309.596 192.864 287.646 199.55 266.546 203.895C255.681 206.133 244.97 207.765 235.612 208.212C227.749 208.588 220.56 208.144 215.003 206.332Z" fill="#1D1C1D"/>
<path d="M243.125 305.88C218.132 290.864 209.555 266.097 208.31 243.443C203.861 266.081 192.652 312.378 183.412 316.462C178.789 318.505 158.587 317.217 134.234 320.052C156.695 352.301 218.414 405.707 285.595 361.339C271.92 349.578 259.921 341.248 252.06 336.713L257.55 311.527C252.834 310.645 248.017 308.819 243.125 305.88Z" fill="white"/>
<path d="M335.599 240.766C339.485 226.927 342.652 196.437 324.23 185.186C295.948 195.226 234.176 212.867 213.342 203.104C210.15 212.823 207.441 227.617 208.31 243.443C209.555 266.097 218.132 290.864 243.125 305.88C248.017 308.819 252.834 310.645 257.55 311.527C293.762 318.297 323.976 269.372 335.599 240.766Z" fill="white"/>
<path d="M208.31 243.443C207.441 227.617 210.15 212.823 213.342 203.104C205.666 198.416 189.297 193.705 185.229 212.367C181.161 231.029 198.921 240.86 208.31 243.443Z" fill="white"/>
<path d="M35.2583 385.633C7.43622 465.386 30.3185 527.998 74.9209 538.85C110.603 547.532 208.413 517.266 277.92 529.583C277.92 529.583 313.312 526.927 325.103 517.229C331.229 512.19 330.984 505.25 316.094 495.794C272.545 468.139 161.518 479.232 134.234 479.908L111.388 419.441L48.0884 361.339C42.891 368.251 38.5188 376.287 35.2583 385.633Z" fill="white"/>
<path fill-rule="evenodd" clip-rule="evenodd" d="M237.664 72.9825C232.628 70.5739 225.936 69.8919 216.971 72.3521C207.858 74.8532 203.637 78.311 202.057 81.7712C200.477 85.2318 201.183 89.4755 203.916 94.3342C209.248 103.815 221.343 113.889 231.386 120.523C238.278 119.398 245.987 119.225 254.587 120.169C255.308 109.616 254.28 95.7234 249.225 85.3431C246.515 79.7763 242.741 75.4111 237.664 72.9825ZM259.665 120.841C260.462 109.839 259.481 94.8727 253.884 83.3778C250.872 77.1924 246.428 71.8221 240.001 68.7482C233.532 65.6543 225.432 65.0668 215.525 67.7859C205.765 70.4643 199.797 74.5503 197.35 79.9095C194.904 85.2682 196.335 91.1194 199.385 96.5421C204.613 105.838 215.331 115.22 224.826 121.942C204.639 127.45 193.044 141.836 187.007 158.393C180.527 176.164 180.324 196.678 182.637 212.3C180.599 222.311 184.358 230.054 189.85 235.555C194.578 240.29 200.598 243.392 205.391 245.043C203.123 256.279 199.42 272.307 195.197 286.264C192.952 293.683 190.58 300.447 188.224 305.577C187.044 308.146 185.899 310.237 184.815 311.774C183.681 313.382 182.815 314.091 182.316 314.311C182.056 314.426 181.508 314.586 180.54 314.74C179.607 314.888 178.431 315.01 177.005 315.113C174.237 315.312 170.722 315.429 166.545 315.568L166.131 315.581C157.458 315.869 146.218 316.258 133.917 317.69C104.35 321.133 68.0313 330.667 45.9936 359.974C40.6461 367.086 36.1624 375.334 32.8263 384.897C18.7997 425.105 17.4861 461.177 25.4616 488.699C33.432 516.203 50.8043 535.442 74.2743 541.153C83.6839 543.442 96.9011 543.125 112.173 541.701C123.901 540.607 137.088 538.832 151.021 536.956C155.314 536.378 159.679 535.79 164.094 535.21C201.743 530.262 243.165 525.847 277.442 531.921C277.667 531.961 277.897 531.973 278.126 531.955L277.92 529.583C278.126 531.955 278.126 531.955 278.127 531.955L278.129 531.955L278.135 531.955L278.157 531.953L278.239 531.947L278.549 531.922C278.819 531.899 279.213 531.865 279.717 531.818C280.725 531.725 282.173 531.582 283.946 531.379C287.49 530.974 292.344 530.33 297.58 529.379C302.808 528.428 308.466 527.161 313.597 525.498C318.303 523.973 322.764 522.053 326.035 519.609L390.029 519.609C391.23 519.609 392.268 518.831 392.527 517.74C393.188 514.942 392.529 511.263 391.224 507.235C389.885 503.104 387.731 498.213 384.98 492.8C379.473 481.966 371.456 468.805 362.406 455.026C344.297 427.458 321.915 397.215 306.826 377.778C306.765 377.7 306.7 377.626 306.629 377.555C300.008 370.897 293.501 364.898 287.331 359.591C274.401 348.47 262.917 340.359 254.917 335.577L259.566 314.25C278.103 316.521 294.667 305.41 307.752 290.945C321.428 275.826 331.961 256.355 337.864 241.919C348.196 228.913 357.906 207.585 353.229 185.597C348.474 163.239 329.036 141.007 282.593 126.337C274.352 123.734 266.723 121.93 259.665 120.841ZM340.489 228.993C347.094 217.143 351.484 201.904 348.212 186.522C343.925 166.368 326.297 145.169 280.949 130.845C272.027 128.027 263.921 126.196 256.563 125.21C246.877 123.913 238.503 124.082 231.279 125.382C210.01 129.21 198.021 142.999 191.85 159.923C186.865 173.597 185.763 189.154 186.722 202.628C187.255 201.931 187.826 201.295 188.435 200.719C191.126 198.169 194.366 196.949 197.653 196.613C203.988 195.964 210.533 198.571 214.615 201.034C219.21 203.142 226.368 203.887 235.349 203.458C244.316 203.029 254.722 201.455 265.441 199.247C286.871 194.834 309.262 187.952 323.319 182.961C324.086 182.689 324.947 182.776 325.633 183.195C335.829 189.422 339.778 200.782 340.828 211.795C341.388 217.676 341.142 223.633 340.489 228.993ZM210.334 204.189C206.842 202.375 202.273 200.929 198.212 201.345C195.939 201.578 193.844 202.387 192.083 204.055C190.296 205.748 188.684 208.488 187.736 212.84C185.893 221.294 188.953 227.663 193.597 232.314C197.194 235.917 201.733 238.465 205.618 240.005C205.302 226.162 207.555 213.339 210.334 204.189ZM207.689 258.577C205.587 267.781 202.974 278.123 200.119 287.555C197.851 295.051 195.41 302.042 192.927 307.449C191.687 310.148 190.406 312.521 189.091 314.386C187.826 316.18 186.32 317.811 184.509 318.612C183.614 319.008 182.519 319.255 181.402 319.433C180.249 319.616 178.899 319.751 177.4 319.859C174.524 320.067 170.914 320.186 166.805 320.322L166.313 320.339C158.645 320.593 149.128 320.923 138.696 321.966C150.196 337.371 169.879 356.45 194.247 367.279C219.484 378.494 249.731 380.884 281.499 361.077C268.905 350.457 257.957 342.916 250.713 338.736C249.803 338.211 249.341 337.215 249.554 336.239L254.551 313.313C250.306 312.243 246.029 310.457 241.738 307.879C221.332 295.619 211.552 277.133 207.689 258.577ZM285.365 364.39C251.518 385.958 218.931 383.524 192.043 371.575C165.553 359.803 144.581 338.82 132.975 322.603C104.755 326.075 71.9357 335.207 51.4419 361.074L113.184 417.746C113.461 418 113.672 418.309 113.801 418.651L136.024 477.471C139.652 477.341 144.46 477.076 150.18 476.762C167.376 475.816 192.805 474.417 219.11 474.847C237.489 475.148 256.451 476.338 273.596 479.207C290.698 482.07 306.214 486.638 317.535 493.828C325.095 498.628 329.505 503.119 330.927 507.476C331.662 509.732 331.578 511.904 330.769 513.917C330.641 514.235 330.497 514.545 330.337 514.848L387.664 514.848C387.594 513.312 387.181 511.243 386.327 508.609C385.092 504.796 383.054 500.144 380.356 494.836C374.965 484.227 367.056 471.232 358.042 457.51C340.059 430.133 317.811 400.062 302.771 380.683C296.816 374.701 290.958 369.261 285.365 364.39ZM48.486 365.047C44.1774 371.219 40.5119 378.281 37.6907 386.368C23.8952 425.913 22.739 461.024 30.3996 487.459C38.0654 513.912 54.4354 531.405 75.5678 536.547C83.9991 538.599 96.389 538.388 111.664 536.964C123.269 535.882 136.298 534.128 150.203 532.256C154.516 531.675 158.913 531.083 163.379 530.496C200.808 525.577 242.891 521.031 278.051 527.183L278.093 527.18C278.347 527.159 278.725 527.126 279.212 527.081C280.185 526.991 281.594 526.852 283.323 526.654C286.784 526.258 291.514 525.631 296.6 524.706C301.694 523.78 307.095 522.565 311.915 521.002C316.785 519.424 320.835 517.562 323.41 515.445C324.728 514.36 325.561 513.289 325.979 512.249C326.381 511.249 326.454 510.15 326.033 508.859C325.14 506.123 321.983 502.415 314.653 497.76C304.2 491.122 289.506 486.707 272.69 483.893C255.916 481.085 237.252 479.905 219.02 479.607C192.925 479.18 168.034 480.551 150.853 481.497C143.951 481.877 138.293 482.189 134.302 482.288C133.192 482.315 132.19 481.673 131.822 480.698L109.172 420.749L48.486 365.047ZM215.003 206.332C212.246 215.76 210.084 229.119 210.864 243.321C212.086 265.562 220.475 289.439 244.512 303.88C249.163 306.674 253.684 308.376 258.054 309.193C274.711 312.307 290.448 302.683 303.839 287.879C317.093 273.227 327.404 254.17 333.159 240.042C335.032 233.314 336.721 222.579 335.733 212.215C334.776 202.168 331.369 193.029 323.875 187.856C309.596 192.864 287.646 199.55 266.546 203.895C255.681 206.133 244.97 207.765 235.612 208.212C227.749 208.588 220.56 208.144 215.003 206.332Z" fill="#1D1C1D"/>
<path d="M263.078 322.046C289.673 283.962 316.78 301.417 327.009 314.906L413.044 455.341C413.044 455.341 428.066 498.215 393.497 517.229C348.489 541.984 309.961 397.349 296.322 345.739C270.171 352.474 241.035 353.612 263.078 322.046Z" fill="white"/>
<path fill-rule="evenodd" clip-rule="evenodd" d="M324.849 316.186L410.686 456.297C410.705 456.355 410.727 456.424 410.753 456.504C410.848 456.801 410.985 457.248 411.15 457.828C411.479 458.989 411.916 460.681 412.338 462.775C413.182 466.971 413.952 472.739 413.679 479.059C413.133 491.703 408.455 506.237 392.196 515.18C387.186 517.935 382.432 518.287 377.774 516.828C372.991 515.331 368.101 511.855 363.174 506.574C353.314 496.005 343.981 478.945 335.521 459.237C319.108 421.004 306.364 373.737 299.395 347.4C304.032 346.139 308.521 344.728 312.563 343.317C313.885 342.855 314.555 341.483 314.06 340.252C313.564 339.022 312.09 338.398 310.767 338.86C306.163 340.467 300.962 342.074 295.64 343.445C289.187 345.107 282.614 346.406 276.743 346.948C270.799 347.498 265.882 347.24 262.553 346.036C260.93 345.45 259.797 344.678 259.062 343.764C258.341 342.868 257.869 341.669 257.853 339.991C257.819 336.49 259.779 331.137 265.222 323.343C278.206 304.751 290.803 300.358 300.872 301.499C311.203 302.669 319.94 309.754 324.849 316.186ZM294.463 348.667C288.639 350.074 282.708 351.181 277.248 351.686C271.063 352.257 265.17 352.09 260.701 350.474C258.425 349.651 256.413 348.414 254.967 346.616C253.507 344.8 252.763 342.581 252.738 340.033C252.691 335.08 255.355 328.738 260.934 320.749C274.545 301.257 288.798 295.335 301.49 296.773C313.868 298.175 323.765 306.5 329.098 313.533C329.145 313.595 329.189 313.66 329.23 313.726L415.266 454.162C415.351 454.302 415.422 454.45 415.475 454.603L413.044 455.341C415.475 454.603 415.476 454.604 415.476 454.605L415.477 454.609L415.481 454.618L415.491 454.649L415.528 454.756C415.558 454.848 415.602 454.98 415.656 455.15C415.764 455.49 415.916 455.983 416.095 456.613C416.452 457.871 416.918 459.677 417.365 461.899C418.257 466.336 419.082 472.475 418.789 479.25C418.204 492.797 413.108 509.207 394.797 519.278C388.555 522.712 382.26 523.255 376.143 521.34C370.151 519.465 364.54 515.299 359.313 509.695C348.864 498.495 339.274 480.812 330.771 461.004C314.238 422.489 301.433 375.006 294.463 348.667Z" fill="#1D1C1D"/>
<path fill-rule="evenodd" clip-rule="evenodd" d="M279.956 235.21C280.437 236.446 279.75 237.811 278.422 238.259L271.782 240.496C270.454 240.944 268.988 240.305 268.507 239.068C268.026 237.832 268.713 236.468 270.041 236.02L276.681 233.782C278.009 233.335 279.475 233.974 279.956 235.21ZM323.245 250.191C324.044 251.274 323.749 252.756 322.585 253.5L315.436 258.071C314.272 258.815 312.68 258.54 311.88 257.456C311.081 256.373 311.376 254.891 312.54 254.147L319.689 249.576C320.853 248.832 322.445 249.107 323.245 250.191ZM297.367 260.555C297.477 261.865 296.425 263.011 295.017 263.113L276.457 264.466C275.049 264.568 273.818 263.589 273.708 262.279C273.598 260.968 274.65 259.822 276.058 259.72L294.618 258.367C296.026 258.265 297.257 259.244 297.367 260.555ZM257.485 267.218C258.893 267.318 259.948 268.461 259.841 269.772C259.258 276.913 261.489 280.001 263.675 281.363C266.06 282.849 269.28 282.859 271.626 282.271C272.989 281.928 274.393 282.68 274.761 283.949C275.128 285.218 274.321 286.524 272.958 286.867C269.782 287.664 264.877 287.84 260.83 285.319C256.583 282.672 254.074 277.579 254.741 269.411C254.848 268.101 256.076 267.119 257.485 267.218Z" fill="#1D1C1D"/>
<path fill-rule="evenodd" clip-rule="evenodd" d="M287.002 224.302C287.283 223.013 288.633 222.181 290.017 222.442L310.066 226.229C311.45 226.49 312.344 227.746 312.064 229.035C311.783 230.323 310.433 231.156 309.049 230.894L289 227.108C287.616 226.846 286.721 225.59 287.002 224.302Z" fill="#ED553B"/>
<path fill-rule="evenodd" clip-rule="evenodd" d="M320.707 221.964C315.436 226.223 311.245 232.793 309.522 240.697C307.799 248.602 308.908 256.173 311.978 262.007C315.047 267.837 319.993 271.82 325.975 272.95C331.957 274.08 338.18 272.206 343.448 267.95C348.718 263.691 352.909 257.121 354.632 249.217C356.355 241.313 355.246 233.741 352.176 227.908C349.107 222.077 344.161 218.094 338.179 216.964C332.197 215.834 325.974 217.708 320.707 221.964ZM317.354 218.369C323.549 213.363 331.337 210.814 339.196 212.299C347.055 213.783 353.16 218.955 356.769 225.813C360.377 232.668 361.573 241.319 359.645 250.164C357.717 259.008 352.993 266.541 346.8 271.545C340.605 276.551 332.817 279.1 324.958 277.616C317.099 276.131 310.994 270.959 307.385 264.101C303.777 257.246 302.581 248.595 304.509 239.751C306.437 230.906 311.161 223.373 317.354 218.369Z" fill="#ED553B"/>
<path fill-rule="evenodd" clip-rule="evenodd" d="M267.533 193.909C254.068 191.366 239.823 201.328 236.37 217.169C232.917 233.009 241.864 247.352 255.329 249.895C268.794 252.438 283.04 242.476 286.493 226.635C289.946 210.794 280.998 196.452 267.533 193.909ZM231.357 216.222C235.206 198.566 251.565 186.036 268.55 189.243C285.536 192.451 295.354 209.925 291.505 227.582C287.656 245.238 271.298 257.768 254.312 254.56C237.327 251.352 227.508 233.878 231.357 216.222Z" fill="#ED553B"/>
<path d="M285.183 445.82L272.397 479.144C290.917 482.19 319.924 492.369 326.099 502.947C331.213 488.665 341.442 463.434 341.442 457.722C341.442 452.009 338.885 448.567 331.213 445.82C320.132 441.853 304.106 436.299 297.969 436.299C291.832 436.299 287.74 438.68 285.183 445.82Z" fill="#ED553B"/>
<path fill-rule="evenodd" clip-rule="evenodd" d="M291.778 440.279C290.223 441.376 288.792 443.268 287.609 446.573L287.592 446.621L287.591 446.621L275.808 477.331C284.753 479.052 295.461 482.161 304.91 486.043C310.173 488.205 315.109 490.634 319.159 493.234C321.448 494.704 323.525 496.273 325.226 497.933C326.199 495.302 327.277 492.434 328.385 489.487C330.03 485.11 331.741 480.56 333.265 476.359C334.86 471.966 336.283 467.873 337.304 464.537C338.363 461.082 338.885 458.759 338.885 457.722C338.885 455.21 338.33 453.493 337.184 452.118C335.992 450.687 333.925 449.341 330.295 448.042C324.758 446.06 318.032 443.698 311.938 441.833C308.891 440.901 306.034 440.103 303.582 439.54C301.082 438.966 299.179 438.679 297.969 438.679C295.258 438.679 293.306 439.201 291.778 440.279ZM288.689 436.485C291.38 434.587 294.543 433.919 297.969 433.919C299.828 433.919 302.229 434.326 304.807 434.918C307.432 435.521 310.425 436.359 313.536 437.311C319.759 439.215 326.587 441.614 332.131 443.599C336.173 445.046 339.22 446.794 341.225 449.2C343.275 451.66 343.999 454.521 343.999 457.722C343.999 459.54 343.243 462.513 342.223 465.842C341.167 469.29 339.713 473.469 338.111 477.883C336.523 482.258 334.818 486.791 333.188 491.124C331.477 495.672 329.849 500.001 328.525 503.7C328.202 504.599 327.338 505.235 326.323 505.318C325.309 505.401 324.338 504.916 323.852 504.083C322.591 501.924 320.006 499.561 316.255 497.153C312.551 494.774 307.92 492.484 302.845 490.398C292.687 486.225 281.002 482.976 271.952 481.488C271.21 481.366 270.564 480.946 270.186 480.34C269.807 479.734 269.735 479.004 269.989 478.344L282.766 445.043C284.139 441.219 286.031 438.359 288.689 436.485Z" fill="#1D1C1D"/>
<path d="M387.472 519.608H551.134C553.691 510.88 557.272 491.045 551.134 481.524C549.506 478.998 540.883 477.533 528.119 476.818C492.772 474.838 425.674 478.609 387.472 481.524C390.881 488.664 395.655 506.278 387.472 519.608Z" fill="#1D1C1D"/>
<path fill-rule="evenodd" clip-rule="evenodd" d="M538.3 436.3C539.215 436.284 540.07 436.724 540.541 437.455C541.911 439.58 543.697 443.018 544.605 446.51C545.461 449.796 545.797 454.155 542.714 457.025C541.342 458.301 539.51 459.223 537.636 459.908C535.736 460.602 533.625 461.112 531.546 461.487C528.048 462.117 524.475 462.392 521.828 462.463C521.115 463.613 520.878 464.642 520.895 465.549C520.916 466.728 521.372 467.924 522.207 469.119C523.811 471.414 526.566 473.342 528.819 474.473C535.011 474.834 540.308 475.378 544.327 476.162C546.39 476.564 548.209 477.047 549.671 477.643C551.056 478.207 552.504 479.022 553.327 480.299C556.821 485.719 557.399 493.695 556.948 501C556.488 508.433 554.918 515.739 553.601 520.234C553.298 521.27 552.287 521.988 551.134 521.988H387.472C386.56 521.988 385.718 521.537 385.26 520.803C384.802 520.069 384.799 519.164 385.251 518.427C388.999 512.322 389.843 505.117 389.27 498.434C388.771 492.616 387.213 487.368 385.765 483.904H369.571C369.296 483.904 369.023 483.863 368.762 483.782C366.394 483.047 364.931 481.468 364.212 479.582C363.536 477.807 363.526 475.81 363.773 473.969C364.27 470.269 365.934 466.31 367.284 463.798C367.703 463.018 368.548 462.513 369.485 462.484L401.767 461.465C403.174 460.169 404.835 458.232 405.851 456.118C407.023 453.681 407.17 451.431 405.802 449.521C405.34 448.877 405.071 448 405.347 447.051C405.592 446.211 406.17 445.65 406.603 445.32C407.443 444.679 408.614 444.245 409.734 443.915C412.092 443.219 415.604 442.609 419.877 442.057C428.484 440.945 440.76 440.004 454.506 439.22C482.025 437.65 515.692 436.697 538.3 436.3ZM408.585 461.25L520.361 457.723L520.447 457.722C522.873 457.722 526.799 457.493 530.574 456.813C532.459 456.473 534.248 456.032 535.768 455.476C537.314 454.911 538.423 454.286 539.097 453.658C540.106 452.72 540.442 450.731 539.635 447.63C539.026 445.292 537.906 442.893 536.872 441.087C514.333 441.498 481.627 442.442 454.819 443.971C441.097 444.754 428.983 445.687 420.58 446.772C416.348 447.319 413.198 447.887 411.278 448.453C411.189 448.479 411.104 448.505 411.024 448.53C412.561 451.851 411.852 455.291 410.519 458.063C409.975 459.195 409.306 460.267 408.585 461.25ZM391.111 483.638C392.535 487.421 393.892 492.505 394.368 498.055C394.889 504.131 394.366 510.929 391.565 517.228H549.153C550.273 512.963 551.462 506.872 551.842 500.727C552.285 493.552 551.585 486.849 548.941 482.748C548.942 482.749 548.943 482.751 548.941 482.748C548.914 482.719 548.632 482.416 547.621 482.004C546.61 481.592 545.17 481.19 543.278 480.821C539.504 480.085 534.302 479.549 527.966 479.194C493.855 477.283 429.793 480.765 391.111 483.638ZM387.367 479.143C422.759 476.445 483.023 473.003 519.943 474.094C519.202 473.359 518.514 472.565 517.92 471.715C516.709 469.983 515.823 467.926 515.781 465.631C515.762 464.628 515.906 463.621 516.222 462.617L371.219 467.192C370.194 469.346 369.177 472.107 368.848 474.559C368.648 476.049 368.734 477.206 369.032 477.99C369.246 478.552 369.554 478.913 370.057 479.143H387.367Z" fill="#1D1C1D"/>
<path d="M387.472 481.524C425.674 478.609 492.772 474.838 528.119 476.818C523.005 474.42 514.31 467.719 520.448 460.102L402.815 463.814L369.571 464.863C367.014 469.623 363.434 479.619 369.571 481.524H387.472Z" fill="white"/>
<path d="M402.815 463.814L520.448 460.102C525.562 460.102 536.814 459.15 540.905 455.342C544.997 451.533 540.905 442.647 538.348 438.68C493.171 439.473 403.838 442.488 407.93 448.201C412.021 453.913 406.225 460.99 402.815 463.814Z" fill="white"/>
<path fill-rule="evenodd" clip-rule="evenodd" d="M538.3 436.3C539.215 436.284 540.07 436.724 540.541 437.455C541.911 439.58 543.697 443.018 544.605 446.51C545.461 449.796 545.797 454.155 542.714 457.025C541.342 458.301 539.51 459.223 537.636 459.908C535.736 460.602 533.625 461.112 531.546 461.487C528.048 462.117 524.475 462.392 521.828 462.463C521.115 463.613 520.878 464.642 520.895 465.549C520.916 466.728 521.372 467.924 522.207 469.119C523.811 471.414 526.566 473.342 528.819 474.473C535.011 474.834 540.308 475.378 544.327 476.162C546.39 476.564 548.209 477.047 549.671 477.643C551.056 478.207 552.504 479.022 553.327 480.299C556.821 485.719 557.399 493.695 556.948 501C556.488 508.433 554.918 515.739 553.601 520.234C553.298 521.27 552.287 521.988 551.134 521.988H387.472C386.56 521.988 385.718 521.537 385.26 520.803C384.802 520.069 384.799 519.164 385.251 518.427C388.999 512.322 389.843 505.117 389.27 498.434C388.771 492.616 387.213 487.368 385.765 483.904H369.571C369.296 483.904 369.023 483.863 368.762 483.782C366.394 483.047 364.931 481.468 364.212 479.582C363.536 477.807 363.526 475.81 363.773 473.969C364.27 470.269 365.934 466.31 367.284 463.798C367.703 463.018 368.548 462.513 369.485 462.484L401.767 461.465C403.174 460.169 404.835 458.232 405.851 456.118C407.023 453.681 407.17 451.431 405.802 449.521C405.34 448.877 405.071 448 405.347 447.051C405.592 446.211 406.17 445.65 406.603 445.32C407.443 444.679 408.614 444.245 409.734 443.915C412.092 443.219 415.604 442.609 419.877 442.057C428.484 440.945 440.76 440.004 454.506 439.22C482.025 437.65 515.692 436.697 538.3 436.3ZM408.585 461.25L520.361 457.723L520.447 457.722C522.873 457.722 526.799 457.493 530.574 456.813C532.459 456.473 534.248 456.032 535.768 455.476C537.314 454.911 538.423 454.286 539.097 453.658C540.106 452.72 540.442 450.731 539.635 447.63C539.026 445.292 537.906 442.893 536.872 441.087C514.333 441.498 481.627 442.442 454.819 443.971C441.097 444.754 428.983 445.687 420.58 446.772C416.348 447.319 413.198 447.887 411.278 448.453C411.189 448.479 411.104 448.505 411.024 448.53C412.561 451.851 411.852 455.291 410.519 458.063C409.975 459.195 409.306 460.267 408.585 461.25ZM391.111 483.638C392.535 487.421 393.892 492.505 394.368 498.055C394.889 504.131 394.366 510.929 391.565 517.228H549.153C550.273 512.963 551.462 506.872 551.842 500.727C552.285 493.552 551.585 486.849 548.941 482.748C548.942 482.749 548.943 482.751 548.941 482.748C548.914 482.719 548.632 482.416 547.621 482.004C546.61 481.592 545.17 481.19 543.278 480.821C539.504 480.085 534.302 479.549 527.966 479.194C493.855 477.283 429.793 480.765 391.111 483.638ZM387.367 479.143C422.759 476.445 483.023 473.003 519.943 474.094C519.202 473.359 518.514 472.565 517.92 471.715C516.709 469.983 515.823 467.926 515.781 465.631C515.762 464.628 515.906 463.621 516.222 462.617L371.219 467.192C370.194 469.346 369.177 472.107 368.848 474.559C368.648 476.049 368.734 477.206 369.032 477.99C369.246 478.552 369.554 478.913 370.057 479.143H387.367Z" fill="#1D1C1D"/>
<path d="M481.5 424.454C466.572 428.459 450.349 418.397 445.265 401.979C440.181 385.561 448.161 369.005 463.089 365C454.943 366.664 443.991 370.484 435.156 376.792C423.123 385.383 415.016 398.591 423.273 417.257C426.138 421.762 432.669 427.574 442.849 430.084C447.497 431.23 452.907 431.688 459.075 431.019C465.68 430.302 473.156 428.294 481.5 424.454Z" fill="#1D1C1D"/>
<path d="M442.849 430.084L436.061 441.062L448.847 441.062L459.075 431.019C452.907 431.688 447.497 431.23 442.849 430.084Z" fill="#1D1C1D"/>
<path d="M481.5 424.454C476.726 426.651 472.236 428.248 468.031 429.347L481.5 438.681L492.319 438.681L481.5 424.454Z" fill="#1D1C1D"/>
<path fill-rule="evenodd" clip-rule="evenodd" d="M431 376.878L416.63 366.908C415.498 366.123 415.264 364.631 416.108 363.577C416.952 362.523 418.555 362.306 419.687 363.091L435.16 373.827C443.157 368.5 452.476 365.053 460.045 363.231L456.579 348.746C456.272 347.463 457.14 346.191 458.519 345.905C459.897 345.619 461.264 346.428 461.571 347.711L465.023 362.135C480.836 359.451 496.704 370.421 501.78 386.816C506.771 402.933 499.936 419.778 485.526 425.629L494.406 437.306C494.958 438.032 495.029 438.984 494.59 439.775C494.151 440.565 493.275 441.061 492.319 441.061L481.5 441.061C480.949 441.061 480.414 440.896 479.973 440.59L467.5 431.947C465.011 432.55 462.611 432.987 460.301 433.275L450.702 442.699C450.219 443.173 449.548 443.442 448.847 443.442L436.06 443.442C435.147 443.442 434.304 442.989 433.847 442.253C433.39 441.517 433.389 440.611 433.844 439.874L439.038 431.476C429.959 428.472 423.946 422.987 421.073 418.469C421.01 418.371 420.955 418.268 420.909 418.163C416.573 408.361 416.462 399.791 419.189 392.467C421.517 386.217 425.844 381.053 431 376.878ZM444.112 432.812C446.806 433.349 449.707 433.668 452.814 433.706L447.747 438.681L440.483 438.681L444.112 432.812ZM467.544 427.002C464.446 427.822 461.525 428.357 458.779 428.654C452.92 429.29 447.834 428.851 443.504 427.783C434.11 425.467 428.153 420.161 425.566 416.188C421.717 407.396 421.766 400.083 424.022 394.026C426.309 387.883 430.961 382.787 436.712 378.681C440.116 376.25 443.862 374.198 447.637 372.509C441.476 380.452 439.425 391.712 442.808 402.638C446.619 414.945 456.511 424.195 467.896 426.907C467.778 426.939 467.661 426.971 467.544 427.002ZM480.66 427.469C478.221 428.527 475.85 429.434 473.547 430.202L482.347 436.301L487.376 436.301L480.66 427.469ZM447.722 401.319C452.531 416.846 467.589 425.709 480.791 422.167C493.994 418.624 501.674 403.661 496.866 388.134C492.058 372.607 476.999 363.745 463.797 367.287C450.595 370.829 442.914 385.792 447.722 401.319ZM467.172 414.738C465.842 414.296 465.148 412.934 465.623 411.696L471.722 395.784L465.59 377.501C465.169 376.246 465.921 374.912 467.269 374.52C468.617 374.128 470.051 374.828 470.472 376.083L476.859 395.125C477.024 395.618 477.013 396.148 476.826 396.634L470.44 413.296C469.965 414.534 468.502 415.18 467.172 414.738Z" fill="#1D1C1D"/>
<path d="M414.987 373.458C412.378 374.465 409.291 373.297 409.028 370.68C408.454 364.968 411.382 359.587 416.724 357.525C422.066 355.463 428.227 357.337 432.163 361.751C433.967 363.773 432.674 366.632 430.065 367.639L414.987 373.458Z" fill="#1D1C1D"/>
<path d="M451.24 356.957C448.51 357.631 445.614 356.086 445.772 353.461C446.118 347.702 450.061 342.662 455.969 341.203C461.878 339.744 467.986 342.302 471.354 347.144C472.889 349.352 471.197 352.029 468.467 352.703L451.24 356.957Z" fill="#1D1C1D"/>
<defs>
<linearGradient id="paint0_linear_201_76" x1="340.868" y1="-185.732" x2="335.564" y2="475.569" gradientUnits="userSpaceOnUse">
<stop stop-color="#ED553B"/>
<stop offset="1" stop-color="#EF8451" stop-opacity="0"/>
</linearGradient>
</defs>
</svg>
